<?xml version="1.0" encoding="UTF-8"?>
<svg width="15px" height="15px" viewBox="0 0 15 15" version="1.1" xmlns="http://www.w3.org/2000/svg" xmlns:xlink="http://www.w3.org/1999/xlink">
    <!-- Generator: Sketch 51.3 (57544) - http://www.bohemiancoding.com/sketch -->
    <title>bookmark</title>
    <desc>Created with Sketch.</desc>
    <defs></defs>
    <g id="Page-1" stroke="none" stroke-width="1" fill="none" fill-rule="evenodd">
        <g id="empresa_editar" transform="translate(-17.000000, -378.000000)" fill="#91A4AD" fill-rule="nonzero">
            <path d="M32,392.482334 C32,392.768899 31.7658176,393.003081 31.4761709,393 L22.1057929,393 L17.5207477,393 C17.2341824,393 17,392.765818 17,392.479252 L17,387.820255 L17,378.523829 C17,378.237264 17.2341824,378.003081 17.5207477,378.003081 L19.517461,378.003081 C19.7269926,378.003081 19.8964667,378.175637 19.8964667,378.382087 C19.8964667,378.588537 19.7269926,378.758012 19.517461,378.758012 L17.7549302,378.758012 L17.7549302,387.820255 L17.7549302,392.248151 L22.1088743,392.248151 L31.2450698,392.248151 L31.2450698,387.820255 L31.2450698,378.758012 L29.4979458,378.758012 C29.2884141,378.758012 29.11894,378.591619 29.11894,378.382087 C29.11894,378.172555 29.2884141,378.003081 29.4979458,378.003081 L31.4792523,378.003081 C31.7658176,378.003081 32,378.237264 32,378.523829 L32,387.820255 L32,392.482334 Z M22.0287592,390.106615 C21.6251027,390.106615 21.3015612,389.783073 21.2984799,389.379417 L21.2984799,378.379006 C21.2984799,378.169474 21.467954,378 21.6774856,378 L27.2639688,378 C27.4735004,378 27.6429745,378.169474 27.6429745,378.379006 L27.6429745,389.379417 C27.6429745,389.779992 27.3163517,390.106615 26.9157765,390.106615 C26.7370583,390.106615 26.5645029,390.038825 26.4320049,389.918652 L24.4722679,388.149959 L22.5125308,389.918652 C22.3769515,390.038825 22.2074774,390.106615 22.0287592,390.106615 Z M22.0564914,378.758012 L22.0564606,389.314708 L23.9884655,387.573747 C24.2534614,387.333402 24.6910127,387.333402 24.95909,387.573747 L26.8910949,389.314708 L26.8910949,378.758012 L22.0564914,378.758012 Z" id="bookmark"></path>
        </g>
    </g>
</svg>