<?xml version="1.0" encoding="UTF-8"?>
<svg width="15px" height="17px" viewBox="0 0 15 17" version="1.1" xmlns="http://www.w3.org/2000/svg" xmlns:xlink="http://www.w3.org/1999/xlink">
    <!-- Generator: Sketch 51.3 (57544) - http://www.bohemiancoding.com/sketch -->
    <title>002-contact</title>
    <desc>Created with Sketch.</desc>
    <defs></defs>
    <g id="Page-1" stroke="none" stroke-width="1" fill="none" fill-rule="evenodd">
        <g id="empresa_editar" transform="translate(-17.000000, -336.000000)" fill="#91A4AD" fill-rule="nonzero">
            <g id="002-contact" transform="translate(17.000000, 336.000000)">
                <path d="M12.9323797,0 L2.04811443,0 C0.916775033,0 0,0.931372549 0,2.08072591 L0,14.68398 C0,15.8333333 0.916775033,16.7647059 2.04811443,16.7647059 L12.9518856,16.7647059 C14.083225,16.7647059 15,15.8333333 15,14.68398 L15,2.08072591 C14.9804941,0.931372549 14.0637191,0 12.9323797,0 Z M14.0247074,14.68398 L14.0052016,14.68398 C14.0052016,15.2784731 13.5175553,15.773884 12.9323797,15.773884 L3.62808843,15.773884 L3.62808843,0.990821861 L12.9518856,0.990821861 C13.5370611,0.990821861 14.0247074,1.48623279 14.0247074,2.08072591 L14.0247074,14.68398 Z" id="Shape"></path>
                <path d="M8.38235294,3.52941176 C7.17092575,3.52941176 6.17647059,4.71788715 6.17647059,6.16566627 C6.17647059,7.63505402 7.17092575,8.80192077 8.38235294,8.82352941 C9.59378014,8.82352941 10.5882353,7.63505402 10.5882353,6.18727491 C10.5882353,4.7394958 9.59378014,3.52941176 8.38235294,3.52941176 Z" id="Shape"></path>
                <path d="M12.8929124,10.9236287 C12.006748,9.61368495 10.4761003,8.80460205 8.82461204,8.82386593 C7.17312378,8.80460205 5.64247612,9.61368495 4.75631168,10.9236287 C4.51463047,11.2511146 4.39378987,11.6556561 4.41392997,12.0601975 L4.41392997,12.7536972 C4.41392997,13.0233915 4.63547108,13.2352941 4.91743249,13.2352941 L12.7317916,13.2352941 C13.013753,13.2352941 13.2352941,13.0233915 13.2352941,12.7536972 L13.2352941,12.0601975 C13.2352941,11.6556561 13.1144535,11.2703785 12.8929124,10.9236287 Z" id="Shape"></path>
            </g>
        </g>
    </g>
</svg>