<?xml version="1.0" encoding="UTF-8"?>
<svg width="17px" height="20px" viewBox="0 0 17 20" version="1.1" xmlns="http://www.w3.org/2000/svg" xmlns:xlink="http://www.w3.org/1999/xlink">
    <!-- Generator: Sketch 51.3 (57544) - http://www.bohemiancoding.com/sketch -->
    <title>notification</title>
    <desc>Created with Sketch.</desc>
    <defs></defs>
    <g id="Page-1" stroke="none" stroke-width="1" fill="none" fill-rule="evenodd">
        <g id="empresa_editar" transform="translate(-1043.000000, -23.000000)" fill="#939393" fill-rule="nonzero">
            <g id="notification" transform="translate(1043.000000, 23.000000)">
                <path d="M16.9393155,17.3511172 L15.4790642,14.8979788 C14.8058928,13.7657085 14.4497446,12.4697108 14.4497446,11.1488426 L14.4497446,8.99997589 C14.4497446,5.69228091 11.7800079,3 8.50001033,3 C5.22001279,3 2.55027607,5.69228091 2.55027607,8.99997589 L2.55027607,11.1488426 C2.55027607,12.4697108 2.19412791,13.7657085 1.52095647,14.8979788 L0.0607051511,17.3511172 C-0.0183414948,17.4831036 -0.0200547033,17.6485587 0.0547686842,17.7822727 C0.130428755,17.9168305 0.272346171,18 0.425339679,18 L16.5746411,18 C16.7276346,18 16.8695919,17.9168707 16.9452121,17.7822727 C17.0200355,17.6485185 17.0183622,17.4831036 16.9393155,17.3511172 Z M1.17588439,17.1428319 L2.24938884,15.338536 C3.00244361,14.0733954 3.40022673,12.62484 3.40022673,11.1488426 L3.40022673,8.99997589 C3.40022673,6.16369524 5.68747967,3.85712793 8.50001033,3.85712793 C11.312541,3.85712793 13.5997939,6.16369524 13.5997939,8.99997589 L13.5997939,11.1488426 C13.5997939,12.62484 13.9975771,14.0733954 14.7497951,15.338536 L15.8241363,17.1428319 L1.17588439,17.1428319 Z" id="Shape"></path>
                <path d="M8.5,0 C7.67274474,0 7,0.797333333 7,1.77779167 L7,3.55558333 C7,3.800875 7.16801041,4 7.37500879,4 C7.58200717,4 7.75001758,3.800875 7.75001758,3.55554167 L7.75001758,1.77779167 C7.75001758,1.287125 8.08600323,0.888916667 8.5,0.888916667 C8.91399677,0.888916667 9.24998242,1.287125 9.24998242,1.77779167 L9.24998242,3.55558333 C9.24998242,3.800875 9.41799283,4 9.62499121,4 C9.83198959,4 10,3.800875 10,3.55554167 L10,1.77779167 C10,0.797333333 9.32725526,0 8.5,0 Z" id="Shape"></path>
                <path d="M9.72969731,17.1848249 C9.61694312,17.0063097 9.37302971,16.9478008 9.18193234,17.0505429 C8.99079749,17.1555705 8.92684847,17.3858436 9.038778,17.5643588 C9.14272327,17.7301455 9.1995127,17.9289138 9.1995127,18.1246934 C9.1995127,18.7450488 8.66134383,19.2498633 8,19.2498633 C7.33865617,19.2498633 6.8004873,18.7450488 6.8004873,18.1246934 C6.8004873,17.9289138 6.85727673,17.7301455 6.961222,17.5643588 C7.07236435,17.38507 7.00841533,17.1555353 6.81806766,17.0505429 C6.62535845,16.9477657 6.38223222,17.0062745 6.27030269,17.1848249 C6.09356199,17.4683677 6,17.7931551 6,18.1247286 C6.00003748,19.1591113 6.89644832,20 7.99921282,20 C9.10197732,20 9.99838815,19.1591113 10,18.1247286 C10,17.7931551 9.90643801,17.4683677 9.72969731,17.1848249 Z" id="Shape"></path>
            </g>
        </g>
    </g>
</svg>