<?xml version="1.0" encoding="UTF-8"?>
<svg width="15px" height="15px" viewBox="0 0 15 15" version="1.1" xmlns="http://www.w3.org/2000/svg" xmlns:xlink="http://www.w3.org/1999/xlink">
    <!-- Generator: Sketch 51.3 (57544) - http://www.bohemiancoding.com/sketch -->
    <title>list</title>
    <desc>Created with Sketch.</desc>
    <defs></defs>
    <g id="Page-1" stroke="none" stroke-width="1" fill="none" fill-rule="evenodd">
        <g id="empresa_editar" transform="translate(-17.000000, -175.000000)" fill="#91A4AD" fill-rule="nonzero">
            <path d="M20.3323133,175 L17.9853121,175 C17.4436965,175 17.00306,175.441176 17.00306,175.983456 L17.00306,178.333333 C17.00306,178.875613 17.4436965,179.316789 17.9853121,179.316789 L20.3323133,179.316789 C20.873929,179.316789 21.3145655,178.875613 21.3145655,178.333333 L21.3145655,175.983456 C21.3145655,175.441176 20.873929,175 20.3323133,175 Z M20.5648715,178.333333 C20.5648715,178.46201 20.4608323,178.566176 20.3323133,178.566176 L17.9853121,178.566176 C17.8567931,178.566176 17.752754,178.46201 17.752754,178.333333 L17.752754,175.983456 C17.752754,175.854779 17.8567931,175.750613 17.9853121,175.750613 L20.3323133,175.750613 C20.4608323,175.750613 20.5648715,175.854779 20.5648715,175.983456 L20.5648715,178.333333 Z M17,183.676471 L17.00306,183.676471 L17.00306,181.326593 C17.00306,180.784314 17.4436965,180.343137 17.9853121,180.343137 L20.3292534,180.343137 C20.870869,180.343137 21.3115055,180.784314 21.3115055,181.326593 L21.3115055,183.676471 C21.3115055,184.21875 20.870869,184.659926 20.3292534,184.659926 L17.9822521,184.659926 C17.4406365,184.659926 17,184.21875 17,183.676471 Z M17.749694,181.323529 L17.752754,181.323529 L17.752754,183.673407 C17.752754,183.802083 17.8567931,183.90625 17.9853121,183.90625 L20.3292534,183.90625 C20.4577723,183.90625 20.5618115,183.802083 20.5618115,183.673407 L20.5618115,181.323529 C20.5618115,181.194853 20.4577723,181.090686 20.3292534,181.090686 L17.9822521,181.090686 C17.8537332,181.090686 17.749694,181.194853 17.749694,181.323529 Z M17,189.016544 L17.00306,189.016544 L17.00306,186.666667 C17.00306,186.124387 17.4436965,185.683211 17.9853121,185.683211 L20.3292534,185.683211 C20.870869,185.683211 21.3115055,186.124387 21.3115055,186.666667 L21.3115055,189.016544 C21.3115055,189.558824 20.870869,190 20.3292534,190 L17.9822521,190 C17.4406365,190 17,189.558824 17,189.016544 Z M17.749694,186.666667 L17.752754,186.666667 L17.752754,189.016544 C17.752754,189.145221 17.8567931,189.249387 17.9853121,189.249387 L20.3292534,189.249387 C20.4577723,189.249387 20.5618115,189.145221 20.5618115,189.016544 L20.5618115,186.666667 C20.5618115,186.53799 20.4577723,186.433824 20.3292534,186.433824 L17.9822521,186.433824 C17.8537332,186.433824 17.749694,186.53799 17.749694,186.666667 Z M23.1933905,177.533701 C22.9853121,177.533701 22.8170135,177.365196 22.8170135,177.156863 C22.8170135,176.948529 22.9853121,176.780025 23.1933905,176.780025 L31.623623,176.780025 C31.8317013,176.780025 32,176.948529 32,177.156863 C32,177.365196 31.8317013,177.533701 31.623623,177.533701 L23.1933905,177.533701 Z M23.1933905,182.876838 C22.9853121,182.876838 22.8170135,182.708333 22.8170135,182.5 C22.8170135,182.291667 22.9853121,182.123162 23.1933905,182.123162 L31.623623,182.123162 C31.8317013,182.123162 32,182.291667 32,182.5 C32,182.708333 31.8317013,182.876838 31.623623,182.876838 L23.1933905,182.876838 Z M23.1933905,188.216912 C22.9853121,188.216912 22.8170135,188.048407 22.8170135,187.840074 C22.8170135,187.63174 22.9853121,187.463235 23.1933905,187.463235 L31.623623,187.463235 C31.8317013,187.463235 32,187.63174 32,187.840074 C32,188.048407 31.8317013,188.216912 31.623623,188.216912 L23.1933905,188.216912 Z" id="list"></path>
        </g>
    </g>
</svg>