<?xml version="1.0" encoding="UTF-8"?>
<svg width="15px" height="15px" viewBox="0 0 15 15" version="1.1" xmlns="http://www.w3.org/2000/svg" xmlns:xlink="http://www.w3.org/1999/xlink">
    <!-- Generator: Sketch 51.3 (57544) - http://www.bohemiancoding.com/sketch -->
    <title>bar-chart</title>
    <desc>Created with Sketch.</desc>
    <defs></defs>
    <g id="Page-1" stroke="none" stroke-width="1" fill="none" fill-rule="evenodd">
        <g id="empresa_editar" transform="translate(-17.000000, -419.000000)" fill="#91A4AD" fill-rule="nonzero">
            <path d="M17.3779189,425.747079 C17.1689881,425.747079 17,425.925573 17,426.146257 L17,433.600822 C17,433.821506 17.1689881,434 17.3779189,434 L20.828349,434 C21.0372798,434 21.2062679,433.821506 21.2062679,433.600822 L21.2062679,426.146257 C21.2062679,425.925573 21.0372798,425.747079 20.828349,425.747079 L17.3779189,425.747079 L17.3779189,425.747079 Z M20.4504302,433.201644 L17.7527653,433.201644 L17.7527653,426.54219 L20.4504302,426.54219 L20.4504302,433.201644 Z M22.3984023,419.399178 C22.3984023,419.178494 22.5673904,419.003245 22.7732487,419 L26.2267513,419 C26.4356821,419 26.6046702,419.178494 26.6046702,419.399178 L26.6046702,433.600822 C26.6046702,433.821506 26.4356821,434 26.2267513,434 L22.7763212,434 C22.5673904,434 22.3984023,433.821506 22.3984023,433.600822 L22.3984023,419.399178 Z M23.1511676,419.798356 L23.1511676,433.20489 L25.8488324,433.20489 L25.8488324,419.798356 L23.1511676,419.798356 Z M31.6220811,433.996755 L31.6220811,434 L28.171651,434 C27.9627202,434 27.7937321,433.821506 27.7937321,433.600822 L27.7937321,424.033535 C27.7937321,423.812852 27.9627202,423.634357 28.171651,423.634357 L31.6220811,423.634357 C31.8310119,423.634357 32,423.812852 32,424.033535 L32,433.597577 C32,433.81826 31.8310119,433.996755 31.6220811,433.996755 Z M28.5495698,424.432713 L28.5495698,433.20489 L31.2472347,433.20489 L31.2472347,424.432713 L28.5495698,424.432713 Z" id="bar-chart"></path>
        </g>
    </g>
</svg>