<svg width="14" height="14" viewBox="0 0 14 14" fill="none" xmlns="http://www.w3.org/2000/svg">
<path d="M11.5325 4.2175L11.5383 4.21167L9.36831 2.04167L8.74998 2.66L9.98081 3.89083C9.43248 4.10083 9.04165 4.62583 9.04165 5.25C9.04165 6.055 9.69498 6.70833 10.5 6.70833C10.71 6.70833 10.9025 6.66167 11.0833 6.58583V10.7917C11.0833 11.1125 10.8208 11.375 10.5 11.375C10.1791 11.375 9.91665 11.1125 9.91665 10.7917V8.16667C9.91665 7.525 9.39165 7 8.74998 7H8.16665V2.91667C8.16665 2.275 7.64165 1.75 6.99998 1.75H3.49998C2.85831 1.75 2.33331 2.275 2.33331 2.91667V12.25H8.16665V7.875H9.04165V10.7917C9.04165 11.5967 9.69498 12.25 10.5 12.25C11.305 12.25 11.9583 11.5967 11.9583 10.7917V5.25C11.9583 4.8475 11.795 4.48 11.5325 4.2175ZM6.99998 5.83333H3.49998V2.91667H6.99998V5.83333ZM10.5 5.83333C10.1791 5.83333 9.91665 5.57083 9.91665 5.25C9.91665 4.92917 10.1791 4.66667 10.5 4.66667C10.8208 4.66667 11.0833 4.92917 11.0833 5.25C11.0833 5.57083 10.8208 5.83333 10.5 5.83333Z" fill="#808384"/>
</svg>
