<svg width="24" height="24" viewBox="0 0 24 24" fill="none" xmlns="http://www.w3.org/2000/svg">
<path d="M1.6875 0.46875C1.36438 0.46911 1.05459 0.597629 0.826111 0.826111C0.597629 1.05459 0.46911 1.36438 0.46875 1.6875V5.58684C0.46875 5.66144 0.498382 5.73297 0.551126 5.78572C0.603871 5.83846 0.675408 5.86809 0.75 5.86809C0.824592 5.86809 0.896129 5.83846 0.948874 5.78572C1.00162 5.73297 1.03125 5.66144 1.03125 5.58684V1.6875C1.03144 1.51351 1.10064 1.3467 1.22367 1.22367C1.3467 1.10064 1.51351 1.03144 1.6875 1.03125H5.91202C5.98661 1.03125 6.05815 1.00162 6.11089 0.948874C6.16363 0.896129 6.19327 0.824592 6.19327 0.75C6.19327 0.675408 6.16363 0.603871 6.11089 0.551126C6.05815 0.498382 5.98661 0.46875 5.91202 0.46875H1.6875Z" fill="#808384"/>
<path d="M23.25 17.9074C23.1754 17.9074 23.1039 17.9371 23.0512 17.9898C22.9984 18.0425 22.9688 18.1141 22.9688 18.1887V22.3125C22.9686 22.4865 22.8994 22.6533 22.7764 22.7763C22.6533 22.8994 22.4865 22.9686 22.3125 22.9688H18.3958C18.3212 22.9688 18.2496 22.9984 18.1969 23.0511C18.1441 23.1039 18.1145 23.1754 18.1145 23.25C18.1145 23.3246 18.1441 23.3961 18.1969 23.4489C18.2496 23.5016 18.3212 23.5313 18.3958 23.5313H22.3125C22.6357 23.5309 22.9454 23.4024 23.1739 23.1739C23.4024 22.9454 23.5309 22.6356 23.5313 22.3125V18.1887C23.5313 18.1141 23.5017 18.0425 23.4489 17.9898C23.3962 17.9371 23.3246 17.9074 23.25 17.9074Z" fill="#808384"/>
<path d="M22.3124 0.46875H18.4744C18.3998 0.46875 18.3282 0.498382 18.2755 0.551126C18.2227 0.603871 18.1931 0.675408 18.1931 0.75C18.1931 0.824592 18.2227 0.896129 18.2755 0.948874C18.3282 1.00162 18.3998 1.03125 18.4744 1.03125H22.3124C22.4864 1.03144 22.6532 1.10064 22.7762 1.22367C22.8993 1.3467 22.9685 1.51351 22.9686 1.6875V5.38992C22.9686 5.46451 22.9983 5.53605 23.051 5.5888C23.1038 5.64154 23.1753 5.67117 23.2499 5.67117C23.3245 5.67117 23.396 5.64154 23.4488 5.5888C23.5015 5.53605 23.5311 5.46451 23.5311 5.38992V1.6875C23.5308 1.36438 23.4023 1.05459 23.1738 0.826111C22.9453 0.597629 22.6355 0.46911 22.3124 0.46875Z" fill="#808384"/>
<path d="M5.3213 22.9687H1.6875C1.51351 22.9686 1.3467 22.8994 1.22367 22.7763C1.10064 22.6533 1.03144 22.4865 1.03125 22.3125V18.7006C1.03125 18.626 1.00162 18.5545 0.948874 18.5018C0.896129 18.449 0.824592 18.4194 0.75 18.4194C0.675408 18.4194 0.603871 18.449 0.551126 18.5018C0.498382 18.5545 0.46875 18.626 0.46875 18.7006V22.3125C0.46911 22.6356 0.597629 22.9454 0.826111 23.1739C1.05459 23.4024 1.36438 23.5309 1.6875 23.5312H5.3213C5.39589 23.5312 5.46743 23.5016 5.52017 23.4489C5.57292 23.3961 5.60255 23.3246 5.60255 23.25C5.60255 23.1754 5.57292 23.1039 5.52017 23.0511C5.46743 22.9984 5.39589 22.9687 5.3213 22.9687Z" fill="#808384"/>
<path fill-rule="evenodd" clip-rule="evenodd" d="M11.5 7.5C11.5 7.22386 11.7239 7 12 7C12.2761 7 12.5 7.22386 12.5 7.5V8C12.5 8.01035 12.4997 8.02063 12.4991 8.03083C14.3092 8.25612 15.7439 9.69082 15.9692 11.5009C15.9794 11.5003 15.9896 11.5 16 11.5H16.5C16.7761 11.5 17 11.7239 17 12C17 12.2761 16.7761 12.5 16.5 12.5H16C15.9896 12.5 15.9794 12.4997 15.9692 12.4991C15.7439 14.3092 14.3092 15.7439 12.4991 15.9692C12.4997 15.9794 12.5 15.9896 12.5 16V16.5C12.5 16.7761 12.2761 17 12 17C11.7239 17 11.5 16.7761 11.5 16.5V16C11.5 15.9896 11.5003 15.9794 11.5009 15.9692C9.69083 15.7439 8.25612 14.3092 8.03083 12.4991C8.02063 12.4997 8.01035 12.5 8 12.5H7.5C7.22386 12.5 7 12.2761 7 12C7 11.7239 7.22386 11.5 7.5 11.5H8C8.01035 11.5 8.02063 11.5003 8.03083 11.5009C8.25612 9.69082 9.69082 8.25612 11.5009 8.03083C11.5003 8.02063 11.5 8.01035 11.5 8V7.5ZM12 15C13.6569 15 15 13.6569 15 12C15 10.3431 13.6569 9 12 9C10.3431 9 9 10.3431 9 12C9 13.6569 10.3431 15 12 15ZM14 12C14 13.1046 13.1046 14 12 14C10.8954 14 10 13.1046 10 12C10 10.8954 10.8954 10 12 10C13.1046 10 14 10.8954 14 12Z" fill="#808384"/>
</svg>
